HIERARCHY
ROOT Hips
{
  OFFSET 179.979 97.3047 303.174
  CHANNELS 6 Xposition Yposition Zposition Zrotation Xrotation Yrotation
  JOINT Spine
  {
    OFFSET 0.000859786 9.92346 -1.22733
    CHANNELS 3 Zrotation Xrotation Yrotation
    JOINT Spine1
    {
      OFFSET 0 11.732 0
      CHANNELS 3 Zrotation Xrotation Yrotation
      JOINT Spine2
      {
        OFFSET 0 13.4588 0
        CHANNELS 3 Zrotation Xrotation Yrotation
        JOINT Neck
        {
          OFFSET 2.54812e-05 15.0278 0.877907
          CHANNELS 3 Zrotation Xrotation Yrotation
          JOINT Head
          {
            OFFSET 0 10.3218 3.14243
            CHANNELS 3 Zrotation Xrotation Yrotation
            End Site
            {
              OFFSET 0 0 0
            }
          }
        }
        JOINT LeftShoulder
        {
          OFFSET 6.10582 9.10629 0.757062
          CHANNELS 3 Zrotation Xrotation Yrotation
          JOINT LeftArm
          {
            OFFSET 0 12.9223 0
            CHANNELS 3 Zrotation Xrotation Yrotation
            JOINT LeftForeArm
            {
              OFFSET 0 27.4047 0
              CHANNELS 3 Zrotation Xrotation Yrotation
              JOINT LeftHand
              {
                OFFSET -1.28204e-05 27.6145 0
                CHANNELS 3 Zrotation Xrotation Yrotation
                End Site
                {
                  OFFSET 0 0 0
                }
              }
            }
          }
        }
        JOINT RightShoulder
        {
          OFFSET -6.1057 9.10638 0.757076
          CHANNELS 3 Zrotation Xrotation Yrotation
          JOINT RightArm
          {
            OFFSET 0 12.9223 0
            CHANNELS 3 Zrotation Xrotation Yrotation
            JOINT RightForeArm
            {
              OFFSET 0 27.4047 0
              CHANNELS 3 Zrotation Xrotation Yrotation
              JOINT RightHand
              {
                OFFSET 1.28428e-05 27.6145 1.44975e-05
                CHANNELS 3 Zrotation Xrotation Yrotation
                End Site
                {
                  OFFSET 0 0 0
                }
              }
            }
          }
        }
      }
    }
  }
  JOINT LeftUpLeg
  {
    OFFSET 9.12387 -6.65719 -0.0554031
    CHANNELS 3 Zrotation Xrotation Yrotation
    JOINT LeftLeg
    {
      OFFSET 0 40.5994 0
      CHANNELS 3 Zrotation Xrotation Yrotation
      JOINT LeftFoot
      {
        OFFSET 0 42.099 0
        CHANNELS 3 Zrotation Xrotation Yrotation
        JOINT LeftToeBase
        {
          OFFSET 0 15.7216 0
          CHANNELS 3 Zrotation Xrotation Yrotation
          End Site
          {
            OFFSET 0 0 0
          }
        }
      }
    }
  }
  JOINT RightUpLeg
  {
    OFFSET -9.12503 -6.6556 -0.0553527
    CHANNELS 3 Zrotation Xrotation Yrotation
    JOINT RightLeg
    {
      OFFSET 0 40.5994 0
      CHANNELS 3 Zrotation Xrotation Yrotation
      JOINT RightFoot
      {
        OFFSET 0 42.099 0
        CHANNELS 3 Zrotation Xrotation Yrotation
        JOINT RightToeBase
        {
          OFFSET 0 15.7216 0
          CHANNELS 3 Zrotation Xrotation Yrotation
          End Site
          {
            OFFSET 0 0 0
          }
        }
      }
    }
  }
}
MOTION
Frames:	10
Frame Time:	0.0333333
-22.6287 99.1054 -56.8515 -4.46633 2.72984 -121.698 -0.801845 -4.75184 0.14637 -1.61328 4.44069 0.519059 -1.67265 11.0349 0.526822 6.26887 9.66989 -3.0838 -1.68297 -9.43438 -1.01849 -104.817 -15.4491 90.1155 30.599 52.9351 43.9572 19.7798 -12.9312 -0.63214 -3.17704 -8.33372 1.63154 108.569 -10.5125 -91.4183 -24.0483 49.5163 19.3716 -122.623 7.66394 -0.385368 -39.9073 25.6117 45.8746 179.626 -4.99244 -9.32421 -2.97618 -9.82073 -7.56944 26.0449 74.9761 -22.5542 -0.965278 26.367 -3.60229 179.439 -2.73252 3.94873 1.59287 -17.3768 4.21731 -16.1367 77.4345 15.2127 0.963527 26.3682 3.55537 
-22.6394 99.1806 -57.149 -4.25526 2.69596 -122.292 -0.782512 -4.91051 0.0933115 -1.57119 4.1243 0.404995 -1.61711 10.7186 0.41071 6.4733 9.87487 -3.20966 -1.516 -9.244 -1.09626 -104.583 -15.4845 90.1088 30.8262 53.0864 43.0489 20.4094 -13.1297 -0.641547 -3.8604 -9.6013 -0.517426 108.828 -10.692 -91.3814 -24.7187 49.1165 20.6519 -124.02 7.77348 -0.412351 -43.9196 28.2653 47.209 179.784 -5.427 -10.129 -2.93557 -9.22408 -7.37971 25.2424 74.8933 -21.9226 -0.965278 26.367 -3.60229 179.6 -3.55106 3.83418 1.69481 -15.5596 3.88578 -15.2004 77.1203 13.9433 0.963527 26.3682 3.55537 
-22.6317 99.2009 -57.4511 -4.10671 2.63675 -123.1 -0.772911 -5.03923 0.0686145 -1.55011 3.86728 0.351108 -1.58968 10.4616 0.35582 6.46519 9.88214 -3.1749 -1.34303 -9.37706 -1.08913 -104.531 -15.5749 90.0885 31.0216 52.8054 42.9104 21.551 -13.4227 -0.655262 -3.95002 -10.4898 -2.27638 109.078 -10.7219 -91.3832 -24.4976 48.911 20.2207 -123.577 7.50447 -0.396627 -38.896 28.1304 43.0387 179.865 -5.2419 -10.8766 -2.81432 -9.30725 -7.38695 25.0106 74.909 -21.9019 -0.965278 26.367 -3.60229 179.585 -4.15271 3.74204 1.91506 -14.1803 3.39456 -14.1178 77.0002 12.4082 0.963527 26.3682 3.55537 
-22.6207 99.2064 -57.7263 -3.99709 2.60532 -124.116 -0.753912 -5.14166 0.0804679 -1.51174 3.66243 0.368182 -1.5533 10.2568 0.373016 6.30816 9.74935 -3.03483 -1.18457 -9.49745 -1.02388 -104.798 -15.7148 90.0542 31.2712 52.2674 42.7863 22.6717 -13.8033 -0.672054 -3.45535 -10.9098 -2.35197 109.223 -10.6652 -91.404 -23.1807 49.272 18.4806 -121.488 7.03621 -0.347486 -29.3524 26.505 36.0931 179.833 -5.5576 -11.3051 -2.72603 -8.82774 -7.68861 25.5186 74.8654 -22.6866 -0.965278 26.367 -3.60229 179.569 -4.71664 3.34738 2.11272 -12.9617 3.03035 -13.3296 76.8616 11.2696 0.963527 26.3682 3.55537 
-22.5686 99.198 -57.9808 -3.84538 2.66623 -125.209 -0.711482 -5.21752 0.103232 -1.42712 3.51075 0.401136 -1.47254 10.1051 0.40633 6.29035 9.54948 -2.93555 -1.36468 -9.83462 -0.915631 -104.841 -15.8854 90.0142 31.7219 52.1182 42.3338 23.4678 -14.1588 -0.687056 -3.20504 -11.0486 -1.81977 109.353 -10.61 -91.4239 -21.2506 49.8861 15.6242 -118.976 6.32419 -0.284691 -18.5149 23.0235 27.9354 179.977 -5.58136 -11.3415 -2.74423 -8.92971 -8.29263 27.0912 75.0196 -24.5981 -0.965278 26.367 -3.60229 179.674 -5.12037 1.81042 2.44912 -12.0184 3.28329 -14.0606 76.6085 11.7927 0.963527 26.3682 3.55537 
-22.4661 99.1753 -58.1844 -3.7085 2.80318 -126.416 -0.645175 -5.2488 0.126106 -1.29514 3.44851 0.428422 -1.34375 10.0428 0.434001 6.06478 9.24392 -2.76918 -1.37073 -10.1945 -0.831431 -104.937 -16.2072 89.9383 32.3349 52.208 41.2027 23.8472 -14.4045 -0.697295 -2.63588 -11.0392 -0.663083 109.464 -10.5263 -91.4508 -18.9641 50.7034 12.5254 -116.326 5.72506 -0.224082 -9.62615 19.1175 20.5644 -179.751 -5.52242 -11.3683 -2.87147 -9.52717 -8.98261 29.2677 75.3432 -27.117 -0.965278 26.367 -3.60229 179.835 -4.8282 0.290785 2.65768 -12.1109 3.44827 -14.4446 76.4524 12.0569 0.963527 26.3682 3.55537 
-22.3073 99.1059 -58.3344 -3.64179 3.09031 -127.557 -0.562288 -5.20182 0.107176 -1.12931 3.54328 0.368456 -1.17091 10.1376 0.373327 5.88144 8.80061 -2.58428 -1.4797 -10.5793 -0.707559 -104.971 -16.3944 89.8941 32.8151 52.5068 39.9965 24.0686 -14.5224 -0.702206 -2.60216 -11.8279 -0.887157 109.461 -10.6081 -91.4287 -17.2121 51.5738 9.69999 -113.086 5.10029 -0.155208 -4.82329 15.9396 13.9897 -179.092 -4.33491 -11.3039 -3.22038 -12.0659 -9.79028 32.3225 76.0043 -30.5427 -0.965278 26.367 -3.60229 -179.934 -4.52678 -0.858781 2.83808 -12.6439 3.4317 -14.4911 76.5228 11.9816 0.963527 26.3682 3.55537 
-22.0694 98.9188 -58.3949 -3.41634 3.46874 -128.663 -0.453099 -5.12375 0.0433611 -0.909436 3.70068 0.211433 -0.932685 10.2951 0.214293 6.00749 8.3853 -2.39529 -2.03163 -11.3091 -0.4348 -104.767 -16.1933 89.9437 32.7852 53.0717 39.2479 24.3631 -14.8929 -0.717858 -2.88666 -12.2511 -1.58574 109.409 -10.813 -91.3715 -16.4862 52.1321 6.65228 -108.717 4.00695 -0.0574131 -2.88807 13.1324 7.71034 -177.943 -2.32602 -11.7704 -3.70202 -16.2594 -10.3552 35.6792 77.1876 -34.5044 -0.965278 26.367 -3.60229 -179.544 -3.80502 -1.75539 3.04976 -13.7929 3.32622 -14.6281 76.9736 11.9546 0.963527 26.3682 3.55537 
-21.774 98.6353 -58.3768 -3.24701 4.05393 -129.792 -0.316026 -4.94991 -0.0593072 -0.632405 4.04945 -0.0306466 -0.627331 10.644 -0.0311659 5.82199 7.74818 -2.08254 -2.47125 -12.1016 -0.158925 -104.783 -16.0035 89.9874 32.7639 53.3275 38.8547 24.7834 -15.2201 -0.731518 -3.20177 -12.7661 -2.55434 109.122 -10.9754 -91.3173 -17.2143 52.3863 3.99797 -103.546 2.57454 0.0571647 -1.21474 10.4612 0.300081 -176.405 0.281641 -13.0633 -3.97968 -21.9551 -10.5121 37.5123 78.4325 -37.2535 -0.965278 26.367 -3.60229 -179.097 -3.16275 -2.48308 3.39099 -15.1024 3.15711 -14.8747 77.678 11.9293 0.963527 26.3682 3.55537 
-21.4874 98.332 -58.2569 -3.18072 4.80081 -130.936 -0.163993 -4.67054 -0.196427 -0.322861 4.60878 -0.346716 -0.280641 11.2031 -0.352246 5.52768 6.59753 -1.63755 -2.66999 -12.708 0.171476 -104.858 -15.9447 90.0003 33.0414 53.3413 38.8422 25.3688 -15.3287 -0.735556 -3.33428 -13.2947 -3.55761 108.978 -11.1091 -91.2765 -19.5615 51.9952 1.54135 -96.8796 0.613644 0.200526 -0.416464 7.03549 -7.68329 -174.478 3.47256 -14.0864 -4.01861 -29.0405 -10.194 33.7733 79.0415 -35.0263 -0.965278 26.367 -3.60229 -178.663 -2.81454 -2.96158 3.7288 -16.2127 2.85375 -14.8179 78.4053 11.5169 0.963527 26.3682 3.55537 
